
<svg width="66" height="13" viewBox="0 0 66 13" fill="none" xmlns="http://www.w3.org/2000/svg">
<path d="M19.582 6.144C19.582 6.388 19.526 6.612 19.414 6.816C19.302 7.016 19.13 7.178 18.898 7.302C18.666 7.426 18.378 7.488 18.034 7.488H17.398V9H16.372V4.788H18.034C18.37 4.788 18.654 4.846 18.886 4.962C19.118 5.078 19.292 5.238 19.408 5.442C19.524 5.646 19.582 5.88 19.582 6.144ZM17.956 6.672C18.152 6.672 18.298 6.626 18.394 6.534C18.49 6.442 18.538 6.312 18.538 6.144C18.538 5.976 18.49 5.846 18.394 5.754C18.298 5.662 18.152 5.616 17.956 5.616H17.398V6.672H17.956ZM21.1421 5.61V6.462H22.5161V7.254H21.1421V8.178H22.6961V9H20.1161V4.788H22.6961V5.61H21.1421ZM27.1302 9H26.1042L24.3882 6.402V9H23.3622V4.788H24.3882L26.1042 7.398V4.788H27.1302V9ZM29.452 4.788C29.896 4.788 30.284 4.876 30.616 5.052C30.948 5.228 31.204 5.476 31.384 5.796C31.568 6.112 31.66 6.478 31.66 6.894C31.66 7.306 31.568 7.672 31.384 7.992C31.204 8.312 30.946 8.56 30.61 8.736C30.278 8.912 29.892 9 29.452 9H27.874V4.788H29.452ZM29.386 8.112C29.774 8.112 30.076 8.006 30.292 7.794C30.508 7.582 30.616 7.282 30.616 6.894C30.616 6.506 30.508 6.204 30.292 5.988C30.076 5.772 29.774 5.664 29.386 5.664H28.9V8.112H29.386ZM33.2593 5.61V6.462H34.6333V7.254H33.2593V8.178H34.8133V9H32.2333V4.788H34.8133V5.61H33.2593ZM39.2474 9H38.2214L36.5054 6.402V9H35.4794V4.788H36.5054L38.2214 7.398V4.788H39.2474V9ZM43.0211 4.788V5.61H41.9051V9H40.8791V5.61H39.7631V4.788H43.0211ZM44.5621 5.61V6.462H45.9361V7.254H44.5621V8.178H46.1161V9H43.5361V4.788H46.1161V5.61H44.5621Z" fill="#7FC008"/>
<rect x="0.5" y="0.5" width="65" height="12" rx="6" stroke="#7FC008"/>
</svg>
