<svg width="66" height="13" viewBox="0 0 66 13" fill="none" xmlns="http://www.w3.org/2000/svg">
<path d="M18.52 9L17.644 7.41H17.398V9H16.372V4.788H18.094C18.426 4.788 18.708 4.846 18.94 4.962C19.176 5.078 19.352 5.238 19.468 5.442C19.584 5.642 19.642 5.866 19.642 6.114C19.642 6.394 19.562 6.644 19.402 6.864C19.246 7.084 19.014 7.24 18.706 7.332L19.678 9H18.52ZM17.398 6.684H18.034C18.222 6.684 18.362 6.638 18.454 6.546C18.55 6.454 18.598 6.324 18.598 6.156C18.598 5.996 18.55 5.87 18.454 5.778C18.362 5.686 18.222 5.64 18.034 5.64H17.398V6.684ZM21.3121 5.61V6.462H22.6861V7.254H21.3121V8.178H22.8661V9H20.2861V4.788H22.8661V5.61H21.3121ZM26.1542 8.256H24.5822L24.3302 9H23.2562L24.7802 4.788H25.9682L27.4922 9H26.4062L26.1542 8.256ZM25.8902 7.464L25.3682 5.922L24.8522 7.464H25.8902ZM28.982 8.208H30.326V9H27.956V4.788H28.982V8.208ZM31.8414 4.788V9H30.8154V4.788H31.8414ZM33.6769 8.16H35.4889V9H32.5129V8.22L34.3129 5.628H32.5129V4.788H35.4889V5.568L33.6769 8.16ZM38.7811 8.256H37.2091L36.9571 9H35.8831L37.4071 4.788H38.5951L40.1191 9H39.0331L38.7811 8.256ZM38.5171 7.464L37.9951 5.922L37.4791 7.464H38.5171ZM42.1609 4.788C42.6049 4.788 42.9929 4.876 43.3249 5.052C43.6569 5.228 43.9129 5.476 44.0929 5.796C44.2769 6.112 44.3689 6.478 44.3689 6.894C44.3689 7.306 44.2769 7.672 44.0929 7.992C43.9129 8.312 43.6549 8.56 43.3189 8.736C42.9869 8.912 42.6009 9 42.1609 9H40.5829V4.788H42.1609ZM42.0949 8.112C42.4829 8.112 42.7849 8.006 43.0009 7.794C43.2169 7.582 43.3249 7.282 43.3249 6.894C43.3249 6.506 43.2169 6.204 43.0009 5.988C42.7849 5.772 42.4829 5.664 42.0949 5.664H41.6089V8.112H42.0949ZM46.9343 9.042C46.5383 9.042 46.1743 8.95 45.8423 8.766C45.5143 8.582 45.2523 8.326 45.0563 7.998C44.8643 7.666 44.7683 7.294 44.7683 6.882C44.7683 6.47 44.8643 6.1 45.0563 5.772C45.2523 5.444 45.5143 5.188 45.8423 5.004C46.1743 4.82 46.5383 4.728 46.9343 4.728C47.3303 4.728 47.6923 4.82 48.0203 5.004C48.3523 5.188 48.6123 5.444 48.8003 5.772C48.9923 6.1 49.0883 6.47 49.0883 6.882C49.0883 7.294 48.9923 7.666 48.8003 7.998C48.6083 8.326 48.3483 8.582 48.0203 8.766C47.6923 8.95 47.3303 9.042 46.9343 9.042ZM46.9343 8.106C47.2703 8.106 47.5383 7.994 47.7383 7.77C47.9423 7.546 48.0443 7.25 48.0443 6.882C48.0443 6.51 47.9423 6.214 47.7383 5.994C47.5383 5.77 47.2703 5.658 46.9343 5.658C46.5943 5.658 46.3223 5.768 46.1183 5.988C45.9183 6.208 45.8183 6.506 45.8183 6.882C45.8183 7.254 45.9183 7.552 46.1183 7.776C46.3223 7.996 46.5943 8.106 46.9343 8.106Z" fill="#7FC008"/>
<path d="M18.52 9L17.644 7.41H17.398V9H16.372V4.788H18.094C18.426 4.788 18.708 4.846 18.94 4.962C19.176 5.078 19.352 5.238 19.468 5.442C19.584 5.642 19.642 5.866 19.642 6.114C19.642 6.394 19.562 6.644 19.402 6.864C19.246 7.084 19.014 7.24 18.706 7.332L19.678 9H18.52ZM17.398 6.684H18.034C18.222 6.684 18.362 6.638 18.454 6.546C18.55 6.454 18.598 6.324 18.598 6.156C18.598 5.996 18.55 5.87 18.454 5.778C18.362 5.686 18.222 5.64 18.034 5.64H17.398V6.684ZM21.3121 5.61V6.462H22.6861V7.254H21.3121V8.178H22.8661V9H20.2861V4.788H22.8661V5.61H21.3121ZM26.1542 8.256H24.5822L24.3302 9H23.2562L24.7802 4.788H25.9682L27.4922 9H26.4062L26.1542 8.256ZM25.8902 7.464L25.3682 5.922L24.8522 7.464H25.8902ZM28.982 8.208H30.326V9H27.956V4.788H28.982V8.208ZM31.8414 4.788V9H30.8154V4.788H31.8414ZM33.6769 8.16H35.4889V9H32.5129V8.22L34.3129 5.628H32.5129V4.788H35.4889V5.568L33.6769 8.16ZM38.7811 8.256H37.2091L36.9571 9H35.8831L37.4071 4.788H38.5951L40.1191 9H39.0331L38.7811 8.256ZM38.5171 7.464L37.9951 5.922L37.4791 7.464H38.5171ZM42.1609 4.788C42.6049 4.788 42.9929 4.876 43.3249 5.052C43.6569 5.228 43.9129 5.476 44.0929 5.796C44.2769 6.112 44.3689 6.478 44.3689 6.894C44.3689 7.306 44.2769 7.672 44.0929 7.992C43.9129 8.312 43.6549 8.56 43.3189 8.736C42.9869 8.912 42.6009 9 42.1609 9H40.5829V4.788H42.1609ZM42.0949 8.112C42.4829 8.112 42.7849 8.006 43.0009 7.794C43.2169 7.582 43.3249 7.282 43.3249 6.894C43.3249 6.506 43.2169 6.204 43.0009 5.988C42.7849 5.772 42.4829 5.664 42.0949 5.664H41.6089V8.112H42.0949ZM46.9343 9.042C46.5383 9.042 46.1743 8.95 45.8423 8.766C45.5143 8.582 45.2523 8.326 45.0563 7.998C44.8643 7.666 44.7683 7.294 44.7683 6.882C44.7683 6.47 44.8643 6.1 45.0563 5.772C45.2523 5.444 45.5143 5.188 45.8423 5.004C46.1743 4.82 46.5383 4.728 46.9343 4.728C47.3303 4.728 47.6923 4.82 48.0203 5.004C48.3523 5.188 48.6123 5.444 48.8003 5.772C48.9923 6.1 49.0883 6.47 49.0883 6.882C49.0883 7.294 48.9923 7.666 48.8003 7.998C48.6083 8.326 48.3483 8.582 48.0203 8.766C47.6923 8.95 47.3303 9.042 46.9343 9.042ZM46.9343 8.106C47.2703 8.106 47.5383 7.994 47.7383 7.77C47.9423 7.546 48.0443 7.25 48.0443 6.882C48.0443 6.51 47.9423 6.214 47.7383 5.994C47.5383 5.77 47.2703 5.658 46.9343 5.658C46.5943 5.658 46.3223 5.768 46.1183 5.988C45.9183 6.208 45.8183 6.506 45.8183 6.882C45.8183 7.254 45.9183 7.552 46.1183 7.776C46.3223 7.996 46.5943 8.106 46.9343 8.106Z" fill="#7FC008"/>
<rect x="0.5" y="0.5" width="65" height="12" rx="6" stroke="#7FC008"/>
<rect x="0.5" y="0.5" width="65" height="12" rx="6" stroke="#7FC008"/>
</svg>
